<svg width="121" height="24" viewBox="0 0 121 24" fill="none" xmlns="http://www.w3.org/2000/svg">
<path d="M22.7752 0H1.42522C0.69322 0 0.10022 0.593 0.10022 1.325V22.676C0.10022 23.407 0.69322 24 1.42522 24H12.9202V14.706H9.79222V11.084H12.9202V8.413C12.9202 5.313 14.8132 3.625 17.5792 3.625C18.9042 3.625 20.0422 3.724 20.3742 3.768V7.008L18.4562 7.009C16.9522 7.009 16.6612 7.724 16.6612 8.772V11.085H20.2482L19.7812 14.707H16.6612V24H22.7772C23.5072 24 24.1002 23.407 24.1002 22.675V1.325C24.1002 0.593 23.5072 0 22.7752 0Z" fill="#FEFCF7"/>
<path fill-rule="evenodd" clip-rule="evenodd" d="M108.1 0C104.841 0 104.433 0.014 103.153 0.072C98.7952 0.272 96.3732 2.69 96.1732 7.052C96.1142 8.333 96.1002 8.741 96.1002 12C96.1002 15.259 96.1142 15.668 96.1722 16.948C96.3722 21.306 98.7902 23.728 103.152 23.928C104.433 23.986 104.841 24 108.1 24C111.359 24 111.768 23.986 113.048 23.928C117.402 23.728 119.83 21.31 120.027 16.948C120.086 15.668 120.1 15.259 120.1 12C120.1 8.741 120.086 8.333 120.028 7.053C119.832 2.699 117.411 0.273 113.049 0.073C111.768 0.014 111.359 0 108.1 0ZM108.1 2.163C111.304 2.163 111.684 2.175 112.95 2.233C116.202 2.381 117.721 3.924 117.869 7.152C117.927 8.417 117.938 8.797 117.938 12.001C117.938 15.206 117.926 15.585 117.869 16.85C117.72 20.075 116.205 21.621 112.95 21.769C111.684 21.827 111.306 21.839 108.1 21.839C104.896 21.839 104.516 21.827 103.251 21.769C99.9912 21.62 98.4802 20.07 98.3322 16.849C98.2742 15.584 98.2622 15.205 98.2622 12C98.2622 8.796 98.2752 8.417 98.3322 7.151C98.4812 3.924 99.9962 2.38 103.251 2.232C104.517 2.175 104.896 2.163 108.1 2.163ZM101.938 12C101.938 8.597 104.697 5.838 108.1 5.838C111.503 5.838 114.262 8.597 114.262 12C114.262 15.404 111.503 18.163 108.1 18.163C104.697 18.163 101.938 15.403 101.938 12ZM108.1 16C105.891 16 104.1 14.21 104.1 12C104.1 9.791 105.891 8 108.1 8C110.309 8 112.1 9.791 112.1 12C112.1 14.21 110.309 16 108.1 16ZM113.065 5.595C113.065 4.8 113.71 4.155 114.506 4.155C115.301 4.155 115.945 4.8 115.945 5.595C115.945 6.39 115.301 7.035 114.506 7.035C113.71 7.035 113.065 6.39 113.065 5.595Z" fill="#FEFCF7"/>
<path d="M72.1002 4.55705C71.2172 4.94905 70.2682 5.21305 69.2722 5.33205C70.2892 4.72305 71.0702 3.75805 71.4372 2.60805C70.4862 3.17205 69.4322 3.58205 68.3102 3.80305C67.4132 2.84605 66.1322 2.24805 64.7162 2.24805C61.5372 2.24805 59.2012 5.21405 59.9192 8.29305C55.8282 8.08805 52.2002 6.12805 49.7712 3.14905C48.4812 5.36205 49.1022 8.25705 51.2942 9.72305C50.4882 9.69705 49.7282 9.47605 49.0652 9.10705C49.0112 11.388 50.6462 13.522 53.0142 13.997C52.3212 14.185 51.5622 14.229 50.7902 14.081C51.4162 16.037 53.2342 17.46 55.3902 17.5C53.3202 19.123 50.7122 19.848 48.1002 19.54C50.2792 20.937 52.8682 21.752 55.6482 21.752C64.7902 21.752 69.9552 14.031 69.6432 7.10605C70.6052 6.41105 71.4402 5.54405 72.1002 4.55705Z" fill="#FEFCF7"/>
</svg>
