<svg xmlns="http://www.w3.org/2000/svg" width="42" height="50" viewBox="0 0 42 50" fill="none">
<path fill-rule="evenodd" clip-rule="evenodd" d="M6.01894 5.96796L6.01894 5.96795C5.97903 5.94583 5.93868 5.92345 5.89445 5.89397H5.90278C5.90552 5.88941 5.90885 5.88455 5.91239 5.8794L5.9124 5.87938C5.91964 5.86883 5.92774 5.85703 5.93334 5.84397C5.94445 5.8398 5.95625 5.83633 5.96806 5.83286L5.96808 5.83285C5.97988 5.82938 5.99168 5.82591 6.00278 5.82174C6.06808 5.86838 6.09077 5.91753 6.11462 5.96918C6.12629 5.99444 6.13823 6.02029 6.15556 6.04674C8.61945 7.59397 9.99723 6.76341 10.9611 4.60508C11.0944 4.29397 11.2222 3.95786 11.3472 3.59952C12.4857 0.255749 15.1641 0.215048 17.7545 0.175684C18.5835 0.163086 19.4035 0.150626 20.1611 0.0300776C21.9889 -0.256033 21.4056 1.44674 20.6139 2.26619C20.3526 2.54016 20.0454 2.77081 19.7274 3.00969C18.9264 3.61126 18.056 4.265 17.6722 5.79397C18.411 5.79397 19.1181 5.79859 19.8037 5.80307C21.3092 5.81291 22.7101 5.82207 24.1111 5.78008C26.7306 5.7023 27.175 6.65508 25.7306 8.77452C25.4142 9.24169 25.1583 9.7523 24.9029 10.2618L24.9029 10.2619C24.5843 10.8975 24.2666 11.5315 23.8333 12.0773C22.3194 13.9717 22.3528 15.2662 24.8361 16.1495C25.4611 16.3717 26.2667 16.9273 26.425 17.4912C27.1788 20.1624 28.9835 22.1696 30.7829 24.171C32.7766 26.3884 34.7638 28.5987 35.3083 31.6967C35.3337 31.8393 35.351 31.9713 35.3668 32.0922C35.4535 32.7535 35.4967 33.0828 36.5722 32.9912C38.4056 32.819 40.575 32.7967 41.0861 35.1356C41.5778 37.3662 39.9861 38.7856 38.2833 39.9634C38.0514 40.1219 37.8746 40.3543 37.6772 40.614L37.6771 40.614L37.6771 40.6141C37.5908 40.7276 37.5005 40.8462 37.4 40.9662C37.5571 41.6515 38.151 41.6697 38.707 41.6867C39.262 41.7037 39.7792 41.7196 39.7861 42.3967C39.7972 43.5245 38.5889 44.0495 37.7528 44.3079C33.4889 45.6329 28.9972 46.0829 24.625 45.994C22.2911 45.9425 20.2482 46.6884 18.2163 47.4303C16.7417 47.9687 15.2728 48.5051 13.7028 48.7329C13.4729 48.7672 13.2471 48.8186 13.017 48.871C12.1849 49.0604 11.2951 49.2629 9.94167 48.719C11.5466 48.1361 12.6068 46.9544 13.6748 45.7641C15.2687 43.9877 16.8799 42.192 20.3444 42.3384C19.738 42.0864 19.2508 41.8809 18.8417 41.7082L18.8387 41.707L18.8385 41.7069L18.8384 41.7069L18.8384 41.7069C18.0408 41.3703 17.5397 41.1589 17.0278 40.9717C14.6972 40.1301 14.3861 38.494 16.125 36.5995C17.1056 35.5356 17.7833 34.394 15.5611 33.9329C14.3395 33.6811 14.631 33.1584 14.9542 32.5789C15.1874 32.1608 15.4371 31.7131 15.1472 31.3162C14.775 30.8051 15.9972 30.6606 16.7028 30.7495C18.7917 31.019 21.7444 31.3801 20.9333 28.3273C20.8675 28.0806 20.805 27.8026 20.7384 27.5063L20.7384 27.5061L20.7384 27.5059C20.2773 25.4535 19.6182 22.5192 16.2444 22.9634C12.5889 23.444 11.4417 22.5384 13.7278 19.2217C13.2628 19.0137 12.6194 19.254 12.0027 19.4844C10.8327 19.9215 9.75854 20.3228 10.1806 17.5579C10.2056 17.3829 9.86111 16.9634 9.79167 16.9829C9.52591 17.0671 9.25434 17.3304 8.98439 17.5922L8.98438 17.5923C8.39937 18.1596 7.82196 18.7196 7.32778 17.4329C6.97517 16.5155 7.5719 16.273 8.27234 15.9883C8.9845 15.6988 9.80386 15.3658 9.84167 14.2356C9.78653 14.0567 9.3753 14.0527 8.93262 14.0484C8.19327 14.0412 7.3662 14.0332 7.96389 13.2079C9.95345 10.4628 8.4313 9.30913 6.72825 8.01841L6.7282 8.01837L6.72803 8.01825C6.55273 7.88538 6.37551 7.75107 6.2 7.61341C5.9698 7.43416 6.05363 7.1639 6.14326 6.8749C6.18558 6.73845 6.2292 6.59783 6.24167 6.46063C6.24167 6.45647 6.24028 6.45092 6.23889 6.44536L6.23889 6.44536C6.2375 6.4398 6.23611 6.43424 6.23611 6.43008C6.24445 6.29952 6.23056 6.16619 6.15 6.04674C6.10401 6.01513 6.06174 5.99169 6.01895 5.96796L6.01894 5.96796ZM1.47778 26.1856C0.91667 26.094 0.277781 25.5051 0.338892 24.6579C0.461114 23.1023 5.20278 19.9329 7.30834 20.0579C9.24747 20.1646 9.87281 21.4824 10.4606 22.7212C10.6988 23.2232 10.9308 23.7122 11.2417 24.1023C11.15 25.9356 10.0417 26.9717 8.85 26.9773C6.51 27.0064 4.15234 26.6218 1.8227 26.2418L1.47778 26.1856ZM8.19167 0.8773C5.56667 1.5773 4.05278 2.97174 4.23889 5.79119C2.48052 5.96414 2.99058 6.67928 3.46068 7.33839C3.53419 7.44146 3.60672 7.54315 3.66945 7.64119C3.80516 7.33243 4.04138 7.04233 4.28508 6.74303L4.28508 6.74303C4.44041 6.55226 4.59879 6.35775 4.73611 6.1523C4.89026 6.11242 5.04483 6.07169 5.19949 6.03095L5.19969 6.0309C5.4435 5.96666 5.68755 5.90237 5.93056 5.84119C6.16734 5.31917 6.57442 4.87779 6.98732 4.4301C7.82899 3.51752 8.69483 2.57873 8.19167 0.8773ZM3.575 8.42452C3.99723 8.2773 3.88334 7.98286 3.66667 7.64119C3.55834 7.88008 3.49445 8.13008 3.575 8.42452Z" fill="#0E8784"/>
</svg>